<svg width="25" height="24" fill="none" xmlns="http://www.w3.org/2000/svg"><path d="M3.84 17a10.018 10.018 0 01-.978-2.326 3 3 0 00.002-5.347A9.99 9.99 0 015.365 4.99a3 3 0 004.631-2.674 9.99 9.99 0 015.007.002 3 3 0 004.632 2.672A9.99 9.99 0 0121.16 7c.433.749.757 1.53.978 2.326a3 3 0 00-.002 5.347 9.99 9.99 0 01-2.5 4.337 3.001 3.001 0 00-4.632 2.674 9.99 9.99 0 01-5.007-.002 3 3 0 00-4.632-2.672A10.017 10.017 0 013.84 17zm5.66.196a4.993 4.993 0 012.25 2.77c.5.047 1 .048 1.5 0a4.993 4.993 0 012.25-2.77 4.993 4.993 0 013.525-.564c.29-.408.54-.843.748-1.298A4.993 4.993 0 0118.5 12c0-1.26.47-2.437 1.273-3.334-.21-.455-.46-.89-.75-1.298a4.993 4.993 0 01-3.523-.564 4.993 4.993 0 01-2.25-2.77c-.499-.047-1-.048-1.499-.001a4.993 4.993 0 01-2.25 2.77 4.993 4.993 0 01-3.526.565c-.29.408-.54.843-.748 1.298A4.993 4.993 0 016.5 12a4.99 4.99 0 01-1.273 3.334c.21.455.46.89.75 1.298a4.993 4.993 0 013.523.564zm3-2.196a3 3 0 110-6 3 3 0 010 6zm0-2a1 1 0 100-2 1 1 0 000 2z" fill="#fff"/></svg>