<svg width="44" height="48" fill="none" xmlns="http://www.w3.org/2000/svg"><path d="M43 13h0v22h0L22 47 1 35h0V13h0L22 1l21 12z" stroke="#4F5467" stroke-opacity=".4" stroke-width="2"/><path d="M28 20.25H16a1.5 1.5 0 00-1.5 1.5v7.5a1.5 1.5 0 001.5 1.5h12a1.5 1.5 0 001.5-1.5v-7.5a1.5 1.5 0 00-1.5-1.5z" stroke="#fff" stroke-width="2.5" stroke-linecap="round" stroke-linejoin="round"/><path d="M25 30.75v-12a1.5 1.5 0 00-1.5-1.5h-3a1.5 1.5 0 00-1.5 1.5v12" stroke="#fff" stroke-width="2.5" stroke-linecap="round" stroke-linejoin="round"/></svg>